<?xml version="1.0" encoding="UTF-8" standalone="no"?>
<!-- Created with Inkscape (http://www.inkscape.org/) -->

<svg
   xmlns:dc="http://purl.org/dc/elements/1.1/"
   xmlns:cc="http://creativecommons.org/ns#"
   xmlns:rdf="http://www.w3.org/1999/02/22-rdf-syntax-ns#"
   xmlns:svg="http://www.w3.org/2000/svg"
   xmlns="http://www.w3.org/2000/svg"
   xmlns:sodipodi="http://sodipodi.sourceforge.net/DTD/sodipodi-0.dtd"
   xmlns:inkscape="http://www.inkscape.org/namespaces/inkscape"
   inkscape:export-ydpi="90.244766"
   inkscape:export-xdpi="90.244766"
   inkscape:export-filename="/home/random/Development/web/kazoosh/1501 Turm/derTurm/tower/img/title.png"
   sodipodi:docname="title.svg"
   height="100"
   width="331.17001"
   inkscape:version="0.48.4 r9939"
   version="1.1"
   id="svg2">
  <metadata
     id="metadata8">
    <rdf:RDF>
      <cc:Work
         rdf:about="">
        <dc:format>image/svg+xml</dc:format>
        <dc:type
           rdf:resource="http://purl.org/dc/dcmitype/StillImage" />
        <dc:title></dc:title>
      </cc:Work>
    </rdf:RDF>
  </metadata>
  <defs
     id="defs6" />
  <sodipodi:namedview
     pagecolor="#ffffff"
     bordercolor="#666666"
     borderopacity="1"
     objecttolerance="10"
     gridtolerance="10"
     guidetolerance="10"
     inkscape:pageopacity="0"
     inkscape:pageshadow="2"
     inkscape:window-width="1547"
     inkscape:window-height="875"
     id="namedview4"
     showgrid="false"
     fit-margin-top="0"
     fit-margin-left="0"
     fit-margin-right="0"
     fit-margin-bottom="0"
     inkscape:zoom="0.55993431"
     inkscape:cx="163.2967"
     inkscape:cy="45.788276"
     inkscape:window-x="53"
     inkscape:window-y="0"
     inkscape:window-maximized="1"
     inkscape:current-layer="svg2" />
  <text
     xml:space="preserve"
     style="font-size:56.95646286px;font-style:normal;font-variant:normal;font-weight:normal;font-stretch:normal;line-height:125%;letter-spacing:0px;word-spacing:0px;fill:#ffffff;fill-opacity:1;stroke:none;font-family:Roboto;-inkscape-font-specification:Roboto"
     x="37.443863"
     y="68.598053"
     id="text3128"
     sodipodi:linespacing="125%"><tspan
       sodipodi:role="line"
       id="tspan3130"
       x="37.443863"
       y="68.598053"
       style="font-size:48px;font-style:normal;font-variant:normal;font-weight:normal;font-stretch:normal;fill:#ffffff;fill-opacity:1;font-family:TimeBurner;-inkscape-font-specification:TimeBurner">T</tspan></text>
  <text
     sodipodi:linespacing="125%"
     id="text3132"
     y="68.598053"
     x="101.76852"
     style="font-size:40px;font-style:normal;font-variant:normal;font-weight:normal;font-stretch:normal;line-height:125%;letter-spacing:0px;word-spacing:0px;fill:#ffffff;fill-opacity:1;stroke:none;font-family:Roboto;-inkscape-font-specification:Roboto"
     xml:space="preserve"><tspan
       y="68.598053"
       x="101.76852"
       id="tspan3134"
       sodipodi:role="line"
       style="font-style:normal;font-variant:normal;font-weight:normal;font-stretch:normal;fill:#ffffff;fill-opacity:1;font-family:TimeBurner;-inkscape-font-specification:TimeBurner">alking Tower</tspan></text>
  <path
     inkscape:connector-curvature="0"
     id="path3816"
     d="m 49.740735,1.7861664 0,6.9479817 c 0,5.2592759 0.121676,7.0912599 0.893312,7.7089489 2.944933,0.03466 5.787017,0.472481 8.503004,1.224169 0.450594,-0.716059 0.830261,-1.790183 1.224168,-3.308562 C 61.003247,11.8839 61.948784,8.3391617 62.445613,6.451239 62.741883,5.3254268 62.860348,4.2993509 62.842641,3.5727897 58.750664,2.4267412 54.459328,1.7861664 50.00542,1.7861664 c -0.08826,0 -0.176531,-4.805e-4 -0.264685,0 z m -5.293697,0.3308561 c -4.352537,0.5073843 -8.522694,1.6067702 -12.440194,3.209306 -0.1243,0.454017 -0.05942,1.0076265 0.09926,1.7866237 0.308726,1.5156627 1.566093,5.0386188 2.812277,7.8412928 1.006678,2.264018 1.615974,3.511236 2.282908,4.135701 2.718372,-1.15489 5.607444,-1.98398 8.635346,-2.382164 0.534246,-0.897607 0.622604,-2.05332 0.36394,-3.606331 C 45.903393,11.317186 45.344589,7.8918259 44.976407,5.4917563 L 44.447038,2.1170225 z m 24.086328,3.4078198 c -0.92836,0.3678595 -1.574153,1.5927766 -2.845363,4.4665605 -2.223239,5.0260002 -3.141006,7.3896442 -2.746106,8.9662022 2.844156,1.172405 5.483806,2.726174 7.874377,4.598899 0.766868,-0.234182 1.70655,-0.463198 2.150565,-0.463198 1.091768,0 6.025635,-7.294365 6.881808,-10.190369 0.05214,-0.176357 0.07002,-0.334668 0.09926,-0.496285 C 76.497567,9.6177983 72.667944,7.2746537 68.533366,5.5248423 z M 27.110174,7.6754074 C 22.957743,9.9574933 19.189575,12.842502 15.89415,16.211498 l 4.8305,4.863586 5.492212,5.558384 c 2.240343,-2.312951 4.791253,-4.296387 7.609692,-5.889241 C 33.700789,19.753608 28.445301,9.5498351 27.110174,7.6754074 z m 56.808003,8.3044906 -4.598899,4.565815 -5.624556,5.5253 c 2.228902,2.195507 4.135759,4.697678 5.690727,7.444262 0.220406,0.112984 0.414034,0.165428 0.562455,0.165428 1.560561,0 9.398588,-4.496647 12.142421,-6.71638 C 89.889887,22.91306 87.128661,19.221137 83.918177,15.979898 z M 12.320903,20.247943 C 9.3921667,23.995389 7.0119256,28.196489 5.2736668,32.72122 l 5.6245552,2.349079 c 3.603378,1.513511 7.104754,2.782019 7.77512,2.812278 0.09809,0.0044 0.232118,-0.03511 0.363941,-0.09926 1.154428,-2.929206 2.687753,-5.678665 4.565816,-8.139061 l -1.65428,-1.786624 C 19.556386,25.284514 14.512247,21.360669 12.320903,20.24794 z M 94.24089,31.59631 c -1.209994,0.223095 -4.128561,1.202663 -6.981065,2.349079 l -5.922325,2.382164 0.330856,2.018223 c 0.886193,2.374477 1.516426,4.883354 1.852794,7.47735 0.629567,0.367517 2.126681,0.45672 3.672504,0.198513 1.825811,-0.304976 5.275795,-0.855985 7.675863,-1.224169 l 2.746107,-0.430111 c -0.533616,-4.473424 -1.652423,-8.759075 -3.308562,-12.771049 -0.02669,0.0044 -0.03757,-0.0054 -0.06617,0 z M 3.7186428,37.518635 c -1.0878477,4.050997 -1.6873665,8.305412 -1.6873665,12.704878 0,0.133703 -0.00107,0.263578 0,0.397027 l 6.881808,0 c 5.4222387,0 7.2148647,-0.08783 7.7751207,-0.926398 0.04499,-2.903859 0.429538,-5.721821 1.157997,-8.403747 C 17.132127,40.847319 16.074988,40.444933 14.537639,40.066228 12.062835,39.45659 8.4890166,38.53766 6.5970916,38.014919 5.4770279,37.705444 4.4433458,37.527118 3.7186428,37.518635 z M 83.818921,49.5618 l -0.03309,0.231599 c 0.0018,0.145341 0,0.284336 0,0.430114 0,2.773606 -0.333753,5.460309 -0.959483,8.039804 0.0012,0.0088 -0.0012,0.02439 0,0.03309 0.04647,0.305066 0.135642,0.496167 0.231599,0.595542 0.383827,0.397491 3.164761,1.519472 6.18701,2.48142 3.612565,1.149838 5.696439,1.863567 6.981066,1.753538 1.121488,-4.110057 1.753537,-8.434032 1.753537,-12.90339 0,-0.223136 -0.03011,-0.439295 -0.03309,-0.661713 l -6.220095,0 -7.907463,0 z m -68.189457,4.466558 c -0.434589,-0.02144 -0.947418,0.04529 -1.588108,0.165428 -1.610854,0.302046 -5.1374959,0.836109 -7.841292,1.191083 l -3.8379315,0.496284 c 0.5519236,4.795728 1.8049907,9.366837 3.639418,13.631274 0.8700735,-0.140048 2.6614693,-0.947169 7.1134075,-2.944619 2.653424,-1.190511 4.940812,-2.487871 6.120839,-3.374734 -1.118847,-2.710262 -1.898173,-5.589543 -2.282907,-8.60226 -0.377791,-0.363612 -0.776318,-0.535462 -1.323426,-0.562456 z m 66.469005,8.668432 c -0.245814,0.01071 -0.481964,0.03793 -0.694798,0.09926 -1.155557,2.902422 -2.698495,5.600376 -4.565815,8.039804 0.0043,0.0084 -0.0047,0.02536 0,0.03309 0.348719,0.56424 3.00933,2.924937 5.922326,5.227527 2.172123,1.716964 4.150263,3.199055 5.128271,3.837932 2.759237,-3.585275 5.032536,-7.557731 6.71638,-11.844652 C 93.755249,67.301938 92.163801,66.298801 90.303702,65.475992 85.98533,63.56577 83.659193,62.628808 82.098469,62.6968 z m -61.208391,3.937188 c -2.44664,0.795462 -10.609787,5.286521 -12.8703051,7.014151 2.2159221,4.044778 4.9818651,7.752354 8.2052331,10.984424 l 5.029014,-4.962842 5.426041,-5.35987 c -2.269746,-2.253922 -4.228402,-4.849654 -5.789983,-7.675863 z m 53.433271,7.113408 c -2.286355,2.375795 -4.915845,4.400861 -7.808205,6.021582 l 3.308561,6.253181 c 1.550144,2.935589 2.976936,5.437554 3.672503,6.451696 4.007585,-2.280149 7.664243,-5.100706 10.852083,-8.403747 -0.770691,-1.04748 -2.823667,-3.260655 -5.227527,-5.624555 l -4.797415,-4.698157 z m -44.897182,2.977706 c -1.546064,1.07516 -7.867107,9.187249 -9.098544,11.54688 3.674688,2.929943 7.778685,5.32806 12.208592,7.080321 l 2.150566,-4.797413 c 2.224348,-4.976567 3.209291,-7.394405 2.94462,-8.999289 -2.976378,-1.21505 -5.725311,-2.852473 -8.205234,-4.830499 z m 34.607555,4.466557 -0.529369,0.06617 c -2.829095,1.22749 -5.864657,2.079139 -9.032374,2.481421 -0.380845,1.458246 0.0038,5.229207 1.257254,11.745394 0.335788,1.745724 0.578676,2.482782 1.588108,2.646856 0.02234,0.004 0.04305,-0.003 0.06617,0 4.250055,-0.662362 8.304732,-1.894671 12.109334,-3.606339 l -2.580675,-6.352437 -2.878449,-6.981066 z m -22.432048,1.720452 c -0.10866,0.04892 -0.211072,0.10326 -0.264685,0.165428 -0.428899,0.497349 -1.279951,3.275477 -1.918965,6.187011 -0.639016,2.911535 -1.472242,6.097133 -1.852796,7.080323 -0.09347,0.241494 -0.145686,0.440238 -0.165428,0.628629 4.002675,1.100621 8.192899,1.714521 12.53945,1.720458 1.111605,-0.75644 0.860225,-2.736814 0.860225,-7.212674 l 0,-7.477349 c -0.18877,0.0031 -0.372937,0.03308 -0.562455,0.03308 -2.980572,0 -5.88415,-0.390599 -8.635346,-1.124911 z"
     style="fill:#ffffff;fill-opacity:1" />
</svg>
