<?xml version="1.0" encoding="UTF-8" standalone="no"?>
<!-- Created with Inkscape (http://www.inkscape.org/) -->

<svg
   xmlns:dc="http://purl.org/dc/elements/1.1/"
   xmlns:cc="http://creativecommons.org/ns#"
   xmlns:rdf="http://www.w3.org/1999/02/22-rdf-syntax-ns#"
   xmlns:svg="http://www.w3.org/2000/svg"
   xmlns="http://www.w3.org/2000/svg"
   xmlns:sodipodi="http://sodipodi.sourceforge.net/DTD/sodipodi-0.dtd"
   xmlns:inkscape="http://www.inkscape.org/namespaces/inkscape"
   id="svg2"
   version="1.1"
   inkscape:version="0.48.4 r9939"
   width="331.17001"
   height="94.189827"
   sodipodi:docname="title.svg"
   inkscape:export-filename="/home/random/Development/web/kazoosh/1501 Turm/derTurm/tower/img/title.png"
   inkscape:export-xdpi="90.244766"
   inkscape:export-ydpi="90.244766">
  <metadata
     id="metadata8">
    <rdf:RDF>
      <cc:Work
         rdf:about="">
        <dc:format>image/svg+xml</dc:format>
        <dc:type
           rdf:resource="http://purl.org/dc/dcmitype/StillImage" />
        <dc:title></dc:title>
      </cc:Work>
    </rdf:RDF>
  </metadata>
  <defs
     id="defs6" />
  <sodipodi:namedview
     pagecolor="#ffffff"
     bordercolor="#666666"
     borderopacity="1"
     objecttolerance="10"
     gridtolerance="10"
     guidetolerance="10"
     inkscape:pageopacity="0"
     inkscape:pageshadow="2"
     inkscape:window-width="1547"
     inkscape:window-height="875"
     id="namedview4"
     showgrid="false"
     fit-margin-top="0"
     fit-margin-left="0"
     fit-margin-right="0"
     fit-margin-bottom="0"
     inkscape:zoom="1.5837334"
     inkscape:cx="107.62327"
     inkscape:cy="49.51061"
     inkscape:window-x="53"
     inkscape:window-y="0"
     inkscape:window-maximized="1"
     inkscape:current-layer="svg2" />
  <path
     style="fill:#000000"
     d="m 49.09375,3.5625 0,6.5625 c 0,4.967487 0.114924,6.697831 0.84375,7.28125 2.781546,0.03274 5.465948,0.446267 8.03125,1.15625 0.425595,-0.67633 0.784197,-1.690861 1.15625,-3.125 C 59.731408,13.1 60.624486,9.751928 61.09375,7.96875 61.373583,6.905399 61.485476,5.9362507 61.46875,5.25 57.6038,4.1675353 53.550551,3.5625 49.34375,3.5625 c -0.08337,0 -0.166737,-4.538e-4 -0.25,0 z m -5,0.3125 c -4.111054,0.4792342 -8.049847,1.5176253 -11.75,3.03125 -0.117405,0.4288277 -0.05612,0.9517224 0.09375,1.6875 0.291597,1.431572 1.479205,4.759071 2.65625,7.40625 0.950826,2.13841 1.526318,3.31643 2.15625,3.90625 2.567555,-1.090816 5.296338,-1.873908 8.15625,-2.25 C 45.910858,16.808443 45.994314,15.716849 45.75,14.25 45.469306,12.564728 44.941505,9.329411 44.59375,7.0625 l -0.5,-3.1875 z m 22.75,3.21875 c -0.876854,0.3474512 -1.486818,1.5044078 -2.6875,4.21875 -2.099892,4.747155 -2.96674,6.979662 -2.59375,8.46875 2.68636,1.10736 5.17956,2.574925 7.4375,4.34375 0.724322,-0.22119 1.611869,-0.4375 2.03125,-0.4375 1.031196,0 5.691328,-6.889668 6.5,-9.625 0.04924,-0.166572 0.06614,-0.3161 0.09375,-0.46875 -3.258909,-2.634126 -6.876062,-4.8472698 -10.78125,-6.5 z M 27.71875,9.125 c -3.922051,2.155472 -7.481158,4.880419 -10.59375,8.0625 l 4.5625,4.59375 5.1875,5.25 c 2.116047,-2.184626 4.52543,-4.058019 7.1875,-5.5625 C 33.943712,20.533091 28.979803,10.895431 27.71875,9.125 z M 81.375,16.96875 77.03125,21.28125 71.71875,26.5 c 2.10524,2.0737 3.906303,4.437049 5.375,7.03125 0.208178,0.106715 0.391064,0.15625 0.53125,0.15625 1.473979,0 8.877147,-4.24717 11.46875,-6.34375 -2.078356,-3.826496 -4.686388,-7.313588 -7.71875,-10.375 z M 13.75,21 C 10.983752,24.539534 8.7355687,28.507554 7.09375,32.78125 L 12.40625,35 c 3.40346,1.429539 6.710577,2.62767 7.34375,2.65625 0.09265,0.0042 0.219241,-0.03316 0.34375,-0.09375 1.090379,-2.766691 2.538634,-5.363608 4.3125,-7.6875 l -1.5625,-1.6875 C 20.584052,25.75714 15.819766,22.050994 13.75,21 z m 77.375,10.71875 c -1.142863,0.210718 -3.899506,1.135938 -6.59375,2.21875 l -5.59375,2.25 0.3125,1.90625 c 0.837026,2.242739 1.432294,4.612422 1.75,7.0625 0.594637,0.347127 2.008691,0.431382 3.46875,0.1875 1.724513,-0.288056 4.983089,-0.808495 7.25,-1.15625 l 2.59375,-0.40625 c -0.50401,-4.225234 -1.560744,-8.273113 -3.125,-12.0625 -0.02521,0.0042 -0.03548,-0.005 -0.0625,0 z m -85.5,5.59375 c -1.0274931,3.826244 -1.59375,7.84462 -1.59375,12 0,0.126285 -0.00101,0.248955 0,0.375 l 6.5,0 c 5.121409,0 6.814578,-0.08295 7.34375,-0.875 0.0425,-2.742751 0.405707,-5.40437 1.09375,-7.9375 -0.674457,-0.418495 -1.672945,-0.798555 -3.125,-1.15625 -2.3375,-0.575814 -5.71304,-1.443761 -7.5,-1.9375 C 7.2858284,37.488944 6.3094958,37.320512 5.625,37.3125 z M 81.28125,48.6875 81.25,48.90625 c 0.0017,0.137277 0,0.26856 0,0.40625 0,2.619724 -0.315235,5.157367 -0.90625,7.59375 0.0012,0.0083 -0.0012,0.02304 0,0.03125 0.04389,0.288141 0.128117,0.46864 0.21875,0.5625 0.362532,0.375439 2.989177,1.435171 5.84375,2.34375 3.412137,1.086044 5.380395,1.760175 6.59375,1.65625 1.059267,-3.882028 1.65625,-7.966105 1.65625,-12.1875 0,-0.210755 -0.02844,-0.414921 -0.03125,-0.625 l -5.875,0 -7.46875,0 z M 16.875,52.90625 c -0.410478,-0.02025 -0.894856,0.04278 -1.5,0.15625 -1.521482,0.285288 -4.852463,0.78972 -7.40625,1.125 l -3.625,0.46875 c 0.5213024,4.529657 1.7048483,8.847158 3.4375,12.875 C 8.6030513,67.398972 10.295059,66.63663 14.5,64.75 c 2.50621,-1.12446 4.666691,-2.34984 5.78125,-3.1875 -1.056773,-2.559894 -1.792861,-5.27943 -2.15625,-8.125 -0.356831,-0.343438 -0.733248,-0.505754 -1.25,-0.53125 z m 62.78125,8.1875 C 79.424074,61.10386 79.201026,61.12958 79,61.1875 c -1.091446,2.741394 -2.548781,5.289663 -4.3125,7.59375 0.0041,0.0079 -0.0045,0.02395 0,0.03125 0.329372,0.532936 2.84237,2.762659 5.59375,4.9375 2.051612,1.621706 3.920003,3.021569 4.84375,3.625 2.606153,-3.38636 4.753328,-7.138421 6.34375,-11.1875 -0.802448,-0.744109 -2.305601,-1.69159 -4.0625,-2.46875 -4.078786,-1.804241 -6.275866,-2.68922 -7.75,-2.625 z m -57.8125,3.71875 c -2.310898,0.751329 -10.021147,4.99322 -12.15625,6.625 2.092981,3.82037 4.705468,7.322247 7.75,10.375 l 4.75,-4.6875 5.125,-5.0625 c -2.143819,-2.128873 -3.993806,-4.580592 -5.46875,-7.25 z m 50.46875,6.71875 c -2.159507,2.243985 -4.64311,4.156698 -7.375,5.6875 l 3.125,5.90625 c 1.464141,2.77272 2.811773,5.135874 3.46875,6.09375 3.78524,-2.153644 7.239024,-4.817714 10.25,-7.9375 -0.727933,-0.989365 -2.667008,-3.079752 -4.9375,-5.3125 l -4.53125,-4.4375 z m -42.40625,2.8125 c -1.460288,1.01551 -7.430633,8.677534 -8.59375,10.90625 3.470814,2.767387 7.347118,5.032455 11.53125,6.6875 L 34.875,87.40625 c 2.10094,-4.700462 3.031238,-6.984157 2.78125,-8.5 -2.811245,-1.147638 -5.407666,-2.694216 -7.75,-4.5625 z m 32.6875,4.21875 -0.5,0.0625 c -2.672134,1.159388 -5.53928,1.963787 -8.53125,2.34375 -0.359716,1.377342 0.0037,4.939086 1.1875,11.09375 0.317159,1.648864 0.546571,2.345028 1.5,2.5 0.0211,0.0034 0.04067,-0.0029 0.0625,0 4.014259,-0.62561 7.84398,-1.789544 11.4375,-3.40625 l -2.4375,-6 -2.71875,-6.59375 z m -21.1875,1.625 c -0.102631,0.04621 -0.199362,0.09753 -0.25,0.15625 -0.405103,0.469755 -1.208938,3.09375 -1.8125,5.84375 -0.603562,2.75 -1.390561,5.75886 -1.75,6.6875 -0.08829,0.228096 -0.137603,0.415807 -0.15625,0.59375 3.780602,1.039554 7.738349,1.619398 11.84375,1.625 1.049932,-0.714468 0.8125,-2.584966 0.8125,-6.8125 l 0,-7.0625 c -0.178298,0.003 -0.352247,0.03125 -0.53125,0.03125 -2.815207,0 -5.557692,-0.368929 -8.15625,-1.0625 z"
     id="path3115"
     inkscape:connector-curvature="0" />
  <text
     xml:space="preserve"
     style="font-size:56.95646286px;font-style:normal;font-variant:normal;font-weight:normal;font-stretch:normal;line-height:125%;letter-spacing:0px;word-spacing:0px;fill:#000000;fill-opacity:1;stroke:none;font-family:Roboto;-inkscape-font-specification:Roboto"
     x="32.286766"
     y="71.419296"
     id="text3128"
     sodipodi:linespacing="125%"><tspan
       sodipodi:role="line"
       id="tspan3130"
       x="32.286766"
       y="71.419296">T</tspan></text>
  <text
     sodipodi:linespacing="125%"
     id="text3132"
     y="65.168564"
     x="96.611427"
     style="font-size:40px;font-style:normal;font-variant:normal;font-weight:normal;font-stretch:normal;line-height:125%;letter-spacing:0px;word-spacing:0px;fill:#000000;fill-opacity:1;stroke:none;font-family:Roboto;-inkscape-font-specification:Roboto"
     xml:space="preserve"><tspan
       y="65.168564"
       x="96.611427"
       id="tspan3134"
       sodipodi:role="line">alking   ower</tspan></text>
  <text
     sodipodi:linespacing="125%"
     id="text3136"
     y="71.419296"
     x="210.28677"
     style="font-size:56.95646286px;font-style:normal;font-variant:normal;font-weight:normal;font-stretch:normal;line-height:125%;letter-spacing:0px;word-spacing:0px;fill:#000000;fill-opacity:1;stroke:none;font-family:Roboto;-inkscape-font-specification:Roboto"
     xml:space="preserve"><tspan
       y="71.419296"
       x="210.28677"
       id="tspan3138"
       sodipodi:role="line">T</tspan></text>
</svg>
